<svg xmlns="http://www.w3.org/2000/svg" width="24.555" height="30.143" viewBox="0 0 24.555 30.143">
  <path id="globalnav_apple_image__cxwwnrj0urau_large" d="M12.844,19.581c-1.191,0-3.034-1.354-4.975-1.3A7.345,7.345,0,0,0,1.639,22.06C-1.02,26.676.954,33.494,3.547,37.245c1.272,1.827,2.773,3.882,4.763,3.817,1.908-.082,2.626-1.24,4.942-1.24,2.3,0,2.952,1.24,4.975,1.191,2.055-.033,3.36-1.859,4.616-3.7a16.392,16.392,0,0,0,2.088-4.29,6.654,6.654,0,0,1-4.045-6.1A6.767,6.767,0,0,1,24.147,21.2a7.061,7.061,0,0,0-5.513-2.985c-2.512-.2-4.616,1.37-5.79,1.37Zm4.241-3.849a6.594,6.594,0,0,0,1.566-4.812A6.782,6.782,0,0,0,14.214,13.2a6.307,6.307,0,0,0-1.6,4.665,5.623,5.623,0,0,0,4.469-2.137" transform="translate(-0.376 -10.92)" fill="#bcbbbb"/>
</svg>
